<?xml version="1.0" encoding="UTF-8" standalone="no"?>
<!-- Uploaded to: SVG Repo, www.svgrepo.com, Generator: SVG Repo Mixer Tools -->

<svg
   fill="#000000"
   version="1.1"
   id="Capa_1"
   width="800px"
   height="800px"
   viewBox="0 0 45.532 45.532"
   xml:space="preserve"
   sodipodi:docname="avatar-default_orig.svg"
   inkscape:version="1.3.1 (9b9bdc1480, 2023-11-25, custom)"
   xmlns:inkscape="http://www.inkscape.org/namespaces/inkscape"
   xmlns:sodipodi="http://sodipodi.sourceforge.net/DTD/sodipodi-0.dtd"
   xmlns="http://www.w3.org/2000/svg"
   xmlns:svg="http://www.w3.org/2000/svg"><defs
   id="defs1" /><sodipodi:namedview
   id="namedview1"
   pagecolor="#ffffff"
   bordercolor="#000000"
   borderopacity="0.25"
   inkscape:showpageshadow="2"
   inkscape:pageopacity="0.0"
   inkscape:pagecheckerboard="0"
   inkscape:deskcolor="#d1d1d1"
   showgrid="false"
   inkscape:zoom="0.89375"
   inkscape:cx="399.44056"
   inkscape:cy="416.78322"
   inkscape:window-width="1920"
   inkscape:window-height="939"
   inkscape:window-x="0"
   inkscape:window-y="0"
   inkscape:window-maximized="1"
   inkscape:current-layer="Capa_1" />
<g
   id="g1">
	<path
   d="M 22.766,0.001 C 10.194,0.001 0,10.193 0,22.766 0,35.339 10.193,45.531 22.766,45.531 35.34,45.531 45.532,35.339 45.532,22.766 45.532,10.193 35.34,0.001 22.766,0.001 Z m 0,6.807 c 4.16,0 7.531,3.372 7.531,7.53 0,4.159 -3.371,7.53 -7.531,7.53 -4.158,0 -7.529,-3.371 -7.529,-7.53 0,-4.158 3.371,-7.53 7.529,-7.53 z m -0.005,32.771 c -4.149,0 -7.949,-1.511 -10.88,-4.012 -0.714,-0.609 -1.126,-1.502 -1.126,-2.439 0,-4.217 3.413,-7.592 7.631,-7.592 h 8.762 c 4.219,0 7.619,3.375 7.619,7.592 0,0.938 -0.41,1.829 -1.125,2.438 -2.93,2.502 -6.731,4.013 -10.881,4.013 z"
   id="path1"
   inkscape:highlight-color="#ed1515"
   style="fill:#fdfdfd;fill-opacity:1" />
</g>
</svg>
