<?xml version="1.0" encoding="UTF-8"?><svg id="Calque_2" xmlns="http://www.w3.org/2000/svg" xmlns:xlink="http://www.w3.org/1999/xlink" viewBox="0 0 79.6 78.55"><defs><style>.cls-1{fill:#188aff;}.cls-1,.cls-2{stroke-width:0px;}.cls-2{fill:url(#Dégradé_sans_nom_2);}</style><radialGradient id="Dégradé_sans_nom_2" cx="-90.46" cy="2244.34" fx="-90.46" fy="2244.34" r="1" gradientTransform="translate(6356.16 156700.08) scale(69.82 -69.82)" gradientUnits="userSpaceOnUse"><stop offset="0" stop-color="#01b3f7"/><stop offset=".21" stop-color="#01b3f7"/><stop offset=".46" stop-color="#01b3f7"/><stop offset="1" stop-color="#01b3f7"/></radialGradient></defs><g id="Calque_1-2"><path class="cls-2" d="M70.81,55.2c.84-1.64,1.69-3.64,2.53-6.01s1.36-5.05,1.55-8.05h-7.59c-.05,2.16-.25,4.43-.6,6.82s-.9,4.8-1.65,7.24h5.77ZM57.31,69.13c1.64-.89,3.4-2.13,5.27-3.73s3.47-3.23,4.78-4.92h-4.29c-.66,1.69-1.54,3.26-2.64,4.71s-2.14,2.77-3.13,3.94ZM13.09,61.11c1.45,1.64,3.01,3.09,4.68,4.36s3.39,2.37,5.17,3.3c-1.17-1.27-2.21-2.6-3.13-4.01s-1.72-2.84-2.43-4.29h-4.85c.09.09.19.2.28.32s.19.22.28.32ZM22.37,8.94c-1.31.75-2.61,1.62-3.9,2.6s-2.54,2.09-3.76,3.3c-.47.47-.94.98-1.41,1.55h3.8c.8-1.5,1.65-2.87,2.57-4.11s1.82-2.36,2.71-3.34ZM67.09,16.53c-1.45-1.78-3.01-3.32-4.68-4.61s-3.34-2.4-5.03-3.34c.89,1.08,1.79,2.27,2.71,3.59s1.77,2.77,2.57,4.36h4.43ZM42.34,35.8l19.55.07c-.14-2.81-.46-5.38-.95-7.7s-1.11-4.44-1.86-6.36l-16.73-.07v14.06ZM42.34,55.2h17.02c.66-1.92,1.22-4.05,1.69-6.4s.75-4.9.84-7.66l-19.55-.07v14.13ZM42.26,73.2c1.12-.28,2.55-.86,4.29-1.72s3.53-2.19,5.38-3.97,3.53-4.12,5.03-7.03h-14.62l-.07,12.73ZM37.76,60.48h-14.62c1.64,2.95,3.42,5.3,5.34,7.03s3.73,3.04,5.41,3.9,2.98,1.44,3.87,1.72v-12.66ZM17.94,41c.19,2.81.52,5.4.98,7.77s1.08,4.51,1.83,6.43h17.02v-14.13l-19.83-.07ZM12.52,35.73c0-2.72.21-5.25.63-7.59s.98-4.5,1.69-6.47h-5.41c-1.27,2.11-2.29,4.34-3.06,6.68s-1.28,4.8-1.51,7.38h7.66ZM37.76,21.74h-17.23c-.8,1.92-1.43,4.04-1.9,6.36s-.75,4.86-.84,7.63l19.97.07v-14.06ZM37.76,4.37c-.47.14-1.52.62-3.16,1.44s-3.49,2.09-5.55,3.8-4.01,4-5.84,6.86h14.55V4.37ZM42.41,4.16l-.07,12.3,14.13.07c-1.64-2.81-3.41-5.06-5.31-6.75s-3.64-2.98-5.24-3.87-2.77-1.48-3.52-1.76ZM4.79,41c.33,5.2,1.69,9.94,4.08,14.2h6.4c-.75-2.44-1.32-4.86-1.72-7.28s-.69-4.72-.88-6.93h-7.88ZM74.89,35.87c-.23-2.95-.77-5.6-1.62-7.95s-1.73-4.38-2.67-6.12h-5.77c.66,1.97,1.21,4.12,1.65,6.47s.71,4.88.81,7.59h7.59ZM72.36,15.27c.89,1.31,1.92,3.09,3.09,5.34s2.17,4.92,2.99,8.02,1.21,6.59,1.16,10.48c-.05,3.61-.61,7.24-1.69,10.9s-2.6,7.1-4.57,10.34c-2.25,3.66-4.79,6.62-7.63,8.89s-5.77,4.01-8.79,5.2-5.93,2.03-8.72,2.5-5.26.73-7.42.77h-.77c-2.95,0-6.23-.38-9.84-1.12s-7.22-2.11-10.83-4.08-6.89-4.73-9.84-8.3c-3.05-3.66-5.38-7.51-7-11.57S.05,44.14,0,39.31c-.09-5.34.74-10.31,2.5-14.91s4.44-8.74,8.05-12.45c2.44-2.48,5.03-4.52,7.77-6.12s5.47-2.81,8.19-3.66,5.24-1.43,7.56-1.76S38.33-.04,39.87,0c1.64,0,3.77.16,6.4.49s5.48,1,8.58,2,6.16,2.52,9.21,4.54,5.81,4.76,8.3,8.23Z"/><polygon class="cls-1" points="59.35 22.65 58.79 21.03 42.34 20.89 42.34 22.58 59.35 22.65"/><polygon class="cls-1" points="37.76 22.58 37.76 20.89 20.82 20.89 20.19 22.51 37.76 22.58"/><polygon class="cls-1" points="37.76 41.84 37.76 40.23 17.87 40.16 18.01 41.84 37.76 41.84"/><polygon class="cls-1" points="61.88 41.92 61.95 40.3 42.34 40.23 42.34 41.92 61.88 41.92"/><polygon class="cls-1" points="74.82 41.99 74.96 40.3 67.37 40.3 67.3 41.99 74.82 41.99"/><polygon class="cls-1" points="71.02 22.58 70.18 21.1 64.55 21.03 65.12 22.65 71.02 22.58"/><polygon class="cls-1" points="37.76 61.32 37.76 59.63 22.65 59.77 23.63 61.25 37.76 61.32"/><polygon class="cls-1" points="56.54 61.25 57.38 59.7 42.34 59.63 42.34 61.32 56.54 61.25"/><polygon class="cls-1" points="17.8 61.25 17.09 59.84 11.96 59.84 13.3 61.32 17.8 61.25"/><polygon class="cls-1" points="12.73 41.84 12.66 40.16 4.72 40.16 4.86 41.77 12.73 41.84"/><polygon class="cls-1" points="14.56 22.51 15.05 20.82 9.92 20.89 9.01 22.44 14.56 22.51"/><polygon class="cls-1" points="66.66 61.32 68 59.77 63.43 59.7 62.73 61.32 66.66 61.32"/><path class="cls-1" d="M23.28,16.39l1.83-2.25c1.22-1.5,2.98-3.16,5.27-4.99,1.97-1.59,3.68-2.66,5.13-3.2s2.2-.83,2.25-.88v-1.69c-.09,0-.96.33-2.6.98s-3.49,1.85-5.55,3.59c-1.36,1.17-2.5,2.39-3.41,3.66s-1.62,2.36-2.11,3.27-.76,1.39-.81,1.44v.07Z"/><path class="cls-1" d="M56.47,16.53v-.14s-.26-.46-.63-1.23-.98-1.76-1.83-2.95-1.97-2.4-3.38-3.62c-1.22-1.12-2.45-2.07-3.69-2.85s-2.3-1.37-3.16-1.79-1.32-.66-1.37-.7v1.76l1.2.6c.8.4,1.8.96,3.02,1.69s2.41,1.58,3.59,2.57c2.3,1.88,3.91,3.46,4.85,4.75l1.41,1.93Z"/><path class="cls-1" d="M67.01,16.53v-.07s-.43-.57-1.16-1.58-1.68-2-2.85-2.99c-.8-.7-1.66-1.35-2.6-1.93s-1.76-1.07-2.46-1.44-1.08-.59-1.12-.63l1.69,2.04,1.09.63c.73.42,1.65,1.08,2.78,1.97,1.22.98,2.3,1.9,3.23,2.74l1.41,1.27Z"/><path class="cls-1" d="M13.3,16.39l1.2-1.16c.8-.77,1.76-1.63,2.88-2.57,1.45-1.12,2.5-1.85,3.13-2.18s.95-.52.95-.56l1.48-1.69s-.7.38-1.97.98-2.6,1.57-4.01,2.88c-1.12,1.03-2,1.98-2.64,2.85s-.97,1.32-1.02,1.37v.07Z"/><path class="cls-1" d="M39.94,78.55h.07c4.64-.05,8.74-.61,12.3-1.69s6.67-2.47,9.32-4.18,4.86-3.53,6.64-5.45,3.22-3.74,4.32-5.45,1.9-3.12,2.39-4.22.74-1.68.74-1.72v.07s-.38.49-.98,1.48-1.51,2.25-2.71,3.8-2.68,3.21-4.46,4.99c-1.64,1.64-3.71,3.28-6.22,4.92s-5.53,3.01-9.07,4.11-7.63,1.65-12.27,1.65h-.07c-4.36,0-8.26-.5-11.71-1.51s-6.5-2.31-9.18-3.9-4.96-3.28-6.86-5.06-3.47-3.47-4.71-5.06-2.16-2.91-2.74-3.94-.88-1.57-.88-1.62l-.07-.14s.27.62.81,1.72,1.39,2.53,2.57,4.29,2.7,3.6,4.57,5.52,4.14,3.75,6.79,5.48,5.74,3.15,9.28,4.25,7.58,1.65,12.13,1.65Z"/></g></svg>