<?xml version="1.0" encoding="UTF-8"?><svg id="Calque_2" xmlns="http://www.w3.org/2000/svg" viewBox="0 0 60.55 80.7"><defs><style>.cls-1{fill:#feb804;}.cls-1,.cls-2,.cls-3{stroke-width:0px;}.cls-2{fill:#ffe567;}.cls-3{fill:#ffc927;}</style></defs><g id="Calque_1-2"><path class="cls-1" d="M34.48,33.54l2.67,5.2,1.41-.42c.94-.28,2.16-.63,3.66-1.05s3.11-.87,4.82-1.34,3.38-.91,4.99-1.34,3.02-.76,4.22-1.02,2-.39,2.43-.39c.8,0,1.32.18,1.58.53s.35.75.28,1.2-.2.81-.39,1.09c-.28.33-1.21,1.21-2.78,2.64s-3.59,3.22-6.05,5.38-5.19,4.54-8.19,7.14-6.08,5.25-9.25,7.95-6.22,5.3-9.18,7.8-5.62,4.77-8.02,6.79-4.3,3.63-5.73,4.85-2.19,1.85-2.29,1.9c-.47.28-.93.34-1.37.18s-.67-.46-.67-.88c0-.14.21-.54.63-1.2s.95-1.43,1.58-2.32,1.25-1.77,1.86-2.64,1.12-1.59,1.55-2.18l.63-.88,14.27-22.43.04-.6c.02-.4-.05-.79-.21-1.16s-.53-.54-1.09-.49h-2.14c-1.24,0-2.77.01-4.57.04s-3.7.04-5.7.04-3.88.01-5.66.04-3.23.04-4.36.04h-1.83c-.23,0-.53-.06-.88-.18s-.6-.43-.74-.95c-.09-.56.08-1.03.53-1.41l.67-.56,21.16-12.52,1.62-1.65c1.08-1.1,2.51-2.55,4.29-4.36s3.74-3.79,5.87-5.94,4.29-4.31,6.47-6.47,4.2-4.14,6.05-5.94,3.38-3.26,4.57-4.36,1.89-1.65,2.07-1.65c.61,0,.93.26.95.77s-.06.98-.25,1.41c-.09.09-.5.74-1.23,1.93s-1.68,2.72-2.85,4.57-2.45,3.89-3.83,6.12-2.75,4.43-4.11,6.61-2.61,4.18-3.76,6.01-2.06,3.3-2.74,4.43l-1.02,1.69Z"/><path class="cls-3" d="M31.1,31.08c.09-.09.57-.74,1.44-1.93s1.99-2.72,3.38-4.57,2.87-3.87,4.46-6.05,3.18-4.36,4.75-6.54,3-4.17,4.29-5.98,2.3-3.26,3.02-4.36,1.02-1.65.88-1.65-.73.4-1.76,1.2-2.38,1.88-4.04,3.23-3.5,2.87-5.52,4.54-4.07,3.36-6.15,5.1-4.08,3.4-5.98,4.99-3.56,2.98-4.99,4.15-2.47,2.02-3.13,2.53c-.89.75-2.17,1.8-3.83,3.16s-3.45,2.84-5.34,4.43-3.71,3.12-5.45,4.57-3.15,2.65-4.25,3.59l-1.65,1.41,1.69-.04c1.12-.02,2.58-.06,4.36-.11s3.69-.09,5.73-.14,4.01-.09,5.91-.14,3.52-.09,4.85-.14,2.19-.07,2.57-.07c.66,0,1.04.21,1.16.63s.09.87-.07,1.34-.29.8-.39.98c-.38.52-.84,1.24-1.41,2.18-.09.19-.54.95-1.34,2.29s-1.82,3.02-3.06,5.06-2.55,4.22-3.94,6.54-2.71,4.55-3.97,6.68-2.36,3.97-3.27,5.52-1.51,2.53-1.79,2.95c-.84,1.41-1.32,2.3-1.44,2.67s-.15.56-.11.56c.23.09.6-.07,1.09-.49s1.04-.94,1.65-1.55c.23-.19.87-.75,1.9-1.69s2.34-2.11,3.94-3.52,3.32-2.93,5.17-4.57,3.69-3.28,5.52-4.92,3.5-3.14,5.03-4.5,2.75-2.46,3.69-3.3,2.17-1.96,3.69-3.34,3.19-2.91,4.99-4.57,3.6-3.32,5.38-4.96,3.42-3.14,4.92-4.5,2.71-2.46,3.62-3.3l1.37-1.27h-1.9c-1.27,0-2.88.01-4.85.04s-4.08.05-6.33.07-4.39.04-6.43.04h-7.49c-.66-.05-.98-.33-.98-.84s.14-.98.42-1.41Z"/><path class="cls-2" d="M30.33,44.51c-.19.33-.64,1.03-1.37,2.11s-1.61,2.4-2.64,3.97-2.1,3.21-3.2,4.92-2.16,3.33-3.16,4.85-1.85,2.81-2.53,3.87-1.09,1.7-1.23,1.93c-.47.89-.46,1.44.04,1.65s.97.01,1.44-.6c.09-.09.49-.61,1.2-1.55s1.59-2.12,2.67-3.55,2.23-2.96,3.45-4.61,2.4-3.22,3.55-4.75,2.14-2.86,2.99-4.01,1.43-1.91,1.76-2.29c.56-.8.84-1.49.84-2.07s-.23-1.02-.7-1.3c-.38-.19-.83-.21-1.37-.07s-1.11.63-1.72,1.48Z"/><path class="cls-2" d="M11.49,41.06c.56-.38,1.45-1.12,2.67-2.25s2.55-2.4,4.01-3.83,2.84-2.79,4.15-4.08,2.32-2.26,3.02-2.92c.89-.84,2.02-1.92,3.38-3.23s2.72-2.65,4.08-4.01,2.54-2.55,3.55-3.59,1.61-1.66,1.79-1.9c.38-.52.42-.94.14-1.27s-.73-.26-1.34.21c-.19.14-.75.61-1.69,1.41s-2.05,1.76-3.34,2.88-2.6,2.27-3.94,3.45-2.54,2.21-3.62,3.13-1.8,1.54-2.18,1.86c-.42.33-1.1.89-2.04,1.69s-1.99,1.7-3.16,2.71-2.34,2-3.52,2.99-2.19,1.86-3.06,2.64-1.46,1.35-1.79,1.72c-.52.52-.67,1.07-.46,1.65s.63.98,1.27,1.2,1.32.06,2.07-.46Z"/></g></svg>