<?xml version="1.0" encoding="UTF-8"?><svg id="Calque_2" xmlns="http://www.w3.org/2000/svg" viewBox="0 0 79.23 79.52"><defs><style>.cls-1{fill:#ed6a65;}.cls-1,.cls-2,.cls-3,.cls-4,.cls-5,.cls-6,.cls-7,.cls-8,.cls-9,.cls-10,.cls-11,.cls-12,.cls-13,.cls-14,.cls-15{stroke-width:0px;}.cls-2{fill:#3f545f;}.cls-3{fill:#858585;}.cls-4{fill:#a02422;}.cls-5{fill:#6896a5;}.cls-6{fill:#fbf0b4;}.cls-7{fill:#e1e1e1;}.cls-8{fill:#437687;}.cls-9{fill:#ca2c31;}.cls-10{fill:#f7d74d;}.cls-11{fill:#fff;}.cls-12{fill:#8dafbf;}.cls-13{fill:#b3e1ee;}.cls-16{isolation:isolate;opacity:.5;}.cls-14{fill:#a02524;}.cls-15{fill:#d83f22;}</style></defs><g id="Calque_1-2"><polygon class="cls-9" points="0 44.3 .91 46.97 2.46 47.67 27.28 40.08 29.11 30.45 10.76 33.75 0 44.3"/><polygon class="cls-4" points="12.66 36.42 25.24 34.24 22.57 41.41 22.57 44.58 9.56 51.26 .91 47.04 12.66 36.42"/><path class="cls-4" d="M40.29,55.12l8.72-4.36-2.39,18.14-9.49,10.62-.7-.07c-.47-.05-.94-.08-1.41-.11s-.73-.04-.77-.04-.25-.35-.6-1.05-.76-1.57-1.23-2.6-.95-2.06-1.44-3.09-.89-1.9-1.2-2.6l-.46-1.05,5.34-11.32,5.62-2.46Z"/><path class="cls-9" d="M34.73,63.49l-4.36,7.88.42.84c.28.56.75,1.57,1.41,3.02.8,1.78,1.34,2.91,1.62,3.38l.42.7,9.91-11.32.98-8.86-.77.46c-.52.3-1.16.66-1.93,1.05s-1.54.79-2.29,1.16-1.55.69-2.39.95-1.56.45-2.14.56l-.88.18Z"/><path class="cls-10" d="M18.35,50.2l10.76,6.89.35.95c.23.63.36,1.49.39,2.57s-.25,2.34-.81,3.8-1.64,3-3.23,4.64c-1.45,1.5-2.95,2.66-4.5,3.48s-2.99,1.38-4.32,1.69-2.43.43-3.27.39-1.27-.16-1.27-.35.08-.36.25-.53.29-.32.39-.46c.23-.33.39-.57.46-.74l.11-.25-1.62.49c-1.08.33-2.34.59-3.8.77s-2.72.27-3.8.25-1.76-.27-2.04-.74-.14-.89.42-1.27,1.01-1.05,1.34-2.04c.23-.7.6-1.91,1.09-3.62s1.16-3.57,2-5.59,1.9-3.82,3.16-5.41c1.36-1.73,2.65-2.94,3.87-3.62s2.2-1.07,2.95-1.16l1.12-.14Z"/><path class="cls-6" d="M19.48,53.3l7.52,1.69.11,1.12c.07.75.04,1.71-.11,2.88s-.46,2.41-.95,3.73-1.3,2.58-2.43,3.8c-1.45,1.59-2.72,2.68-3.8,3.27s-1.92.9-2.53.95-.94.02-.98-.07c-.14-.14-.19-.41-.14-.81s-.19-.67-.7-.81c-.38-.14-.98-.13-1.83.04s-1.73.38-2.67.63-1.75.47-2.43.63-1.07.2-1.16.11c-.09-.14.01-.82.32-2.04s.82-2.71,1.55-4.46,1.65-3.5,2.78-5.24,2.26-2.99,3.41-3.76,2.11-1.24,2.88-1.41l1.16-.25Z"/><path class="cls-3" d="M21.45,46.12l12.16,11.67-.49.56c-.33.38-.73.81-1.2,1.3s-.91.93-1.34,1.3-.68.56-.77.56c-.28,0-1.17-.23-2.67-.7s-3.23-1.64-5.2-3.52c-1.03-1.03-1.83-2.05-2.39-3.06s-.96-1.86-1.2-2.57-.35-1.12-.35-1.27c-.05-.14-.04-.28.04-.42s.29-.47.67-.98c.23-.38.57-.79,1.02-1.23s.84-.83,1.2-1.16l.53-.49Z"/><path class="cls-8" d="M30.52,57.16L67.85,13.22l3.94,13.15-.95,1.44c-.63.96-1.52,2.21-2.67,3.76s-2.46,3.23-3.94,5.06-3.04,3.61-4.68,5.34c-3.47,3.61-6.74,6.77-9.81,9.49s-6.5,4.73-10.3,6.05c-1.88.61-3.48.87-4.82.77s-2.36-.3-3.06-.63l-1.05-.49Z"/><path class="cls-2" d="M42.33,49.99l.88.49c.59.33,1.23.66,1.93.98.66.28,1.34.56,2.04.84l1.05.42,3.3-2.81-1.02-.28c-.68-.19-1.32-.45-1.93-.77-.66-.28-1.32-.59-2-.91l-1.02-.49-2.32-.28-.91,2.81Z"/><path class="cls-12" d="M53.09,7.66l15.26,13.36-1.23,1.86c-.82,1.24-1.98,2.89-3.48,4.96s-3.26,4.32-5.27,6.79-4.24,4.93-6.68,7.42-5.02,4.76-7.73,6.82c-2.67,2.11-4.89,3.73-6.64,4.85s-3.13,1.93-4.11,2.43-1.68.79-2.07.88l-.6.14-.98-.56c-.66-.38-1.48-.95-2.46-1.72s-1.97-1.72-2.95-2.85c-1.36-1.64-2.21-3.32-2.57-5.03s-.22-3.81.39-6.29c.7-3,2.47-6.23,5.31-9.7s6.32-7.15,10.44-11.04c4.5-4.31,8.19-7.44,11.07-9.39l4.32-2.92Z"/><path class="cls-15" d="M66.16,24.61l3.16-.77,6.82-13.15.49-1.27c.33-.84.68-1.86,1.05-3.06s.6-2.32.67-3.38-.18-1.77-.74-2.14c-.75-.56-1.9-.84-3.45-.84s-3.26.2-5.13.6-3.63.93-5.27,1.58c-3.7,1.45-6.4,2.73-8.09,3.83l-2.53,1.65.07,1.12c.05.75.32,1.82.81,3.2s1.39,2.99,2.71,4.82,2.7,3.32,4.15,4.46,2.7,1.99,3.73,2.53l1.55.81Z"/><path class="cls-5" d="M42.47,50.06l.53-.42c.35-.28.67-.52.95-.7.42-.38.81-.7,1.16-.98l.53-.42-1.2-.67c-.8-.45-1.83-1.14-3.09-2.07s-2.55-2.11-3.87-3.52c-1.55-1.64-2.78-3.29-3.69-4.96s-1.61-3.2-2.07-4.61-.77-2.53-.91-3.38l-.21-1.27-2.88,3.38.53,2.07c.35,1.38,1.03,3.12,2.04,5.2s2.47,4.23,4.39,6.43c.98,1.17,2.09,2.19,3.3,3.06s2.27,1.56,3.16,2.07l1.34.77Z"/><path class="cls-4" d="M71.79,26.37l-.77-.14c-.52-.09-1.12-.23-1.83-.42-.56-.14-1.23-.39-2-.74l-1.16-.53,1.05-1.58c.7-1.05,1.58-2.44,2.64-4.15s2.1-3.53,3.13-5.45c1.97-3.61,3.29-6.56,3.97-8.86l1.02-3.45.46.67c.3.45.56,1.21.77,2.29s.22,2.53.04,4.36-.77,4.08-1.76,6.75c-1.36,3.89-2.62,6.74-3.8,8.54l-1.76,2.71Z"/><path class="cls-13" d="M23.77,42.96c-.33-.33-.43-.88-.32-1.65s.34-1.49.67-2.14c.33-.56.77-1.09,1.34-1.58s1.05-.57,1.48-.25c.7.47.63,1.66-.21,3.59-.42.98-.91,1.68-1.48,2.07s-1.05.39-1.48-.04Z"/><path class="cls-13" d="M53.51,10.34l.6.04c.4.02.81.08,1.23.18s.68.23.77.42c.05.19-.02.52-.21.98s-.4.91-.63,1.34l-.35.63-2.21,1.69c-1.48,1.12-3.32,2.65-5.52,4.57-1.59,1.41-3.18,2.89-4.75,4.46s-2.92,2.94-4.04,4.11-1.8,1.85-2.04,2.04c-.38.28-.75.36-1.12.25s-.66-.32-.84-.6c-.19-.33-.27-.76-.25-1.3s.15-1.04.39-1.51c.23-.38,1.11-1.37,2.64-2.99s3.5-3.55,5.94-5.8c1.78-1.64,3.47-3.11,5.06-4.39s2.88-2.3,3.87-3.02l1.48-1.09Z"/><path class="cls-1" d="M53.51,10.34l.14.46c.09.3.23.71.42,1.23.19.47.39.9.6,1.3l.32.6,1.02-.81c.68-.54,1.57-1.2,2.67-1.97s2.26-1.56,3.48-2.36,2.43-1.52,3.62-2.18,2.14-1.24,2.85-1.76.96-.98.77-1.41c-.23-.47-.76-.64-1.58-.53s-1.8.42-2.95.91-2.36,1.04-3.62,1.65c-1.36.66-2.62,1.36-3.8,2.11s-2.12,1.39-2.85,1.93l-1.09.81Z"/><path class="cls-7" d="M56.53,22.92c1.5,1.36,2.3,3.09,2.39,5.2s-.56,3.96-1.97,5.55c-1.03,1.22-2.23,1.99-3.59,2.32s-2.71.32-4.04-.04-2.47-.97-3.41-1.86c-1.5-1.41-2.31-3.14-2.43-5.2s.48-3.87,1.79-5.41c.84-1.03,1.91-1.78,3.2-2.25s2.65-.59,4.08-.35,2.75.91,3.97,2.04Z"/><path class="cls-2" d="M47.18,24.68c1.22-1.27,2.61-1.84,4.18-1.72s2.89.71,3.97,1.79c.94.98,1.41,2.26,1.41,3.83s-.52,2.87-1.55,3.9-2.25,1.58-3.66,1.65-2.7-.32-3.87-1.16c-.84-.66-1.43-1.5-1.76-2.53s-.39-2.07-.18-3.13.69-1.93,1.44-2.64Z"/><path class="cls-14" d="M30.45,47.74l-1.09.91c-.73.61-1.68,1.41-2.85,2.39s-2.41,2.04-3.73,3.16-2.57,2.21-3.76,3.27-2.19,1.95-2.99,2.67-1.27,1.18-1.41,1.37c-.19.38-.47.91-.84,1.62s-.67,1.38-.88,2.04-.22,1.1-.04,1.34c.28.33.7.64,1.27.95s.91.46,1.05.46c.19.05.75-.29,1.69-1.02s2.04-1.63,3.3-2.71,2.46-2.18,3.59-3.3c1.12-1.08,2.31-2.31,3.55-3.69s2.41-2.73,3.52-4.04,1.96-2.44,2.57-3.38c.98-1.41,1.55-2.66,1.69-3.76s.12-1.77-.07-2c-.14-.09-.45.04-.91.39s-.98.79-1.55,1.3-1.05.98-1.48,1.41l-.63.63Z"/><path class="cls-9" d="M11.53,64.2c0-.33.42-1.05,1.27-2.18s1.99-2.5,3.45-4.11,3.09-3.32,4.92-5.1c2.02-1.92,3.76-3.5,5.24-4.75s2.99-2.33,4.54-3.27c.98-.66,1.78-1.02,2.39-1.09s1.04-.04,1.3.11l.39.21-22.15,22.5-.7-.81c-.47-.54-.68-1.04-.63-1.51Z"/><path class="cls-11" d="M10.05,21.38c.23-.19.59-.32,1.05-.39s.87.06,1.2.39c.28.28.43.67.46,1.16s-.08.86-.32,1.09c-.19.28-.53.48-1.02.6s-.93.04-1.3-.25c-.42-.33-.63-.75-.63-1.27s.19-.96.56-1.34Z"/><g class="cls-16"><path class="cls-11" d="M24.54,20.53c.19-.19.46-.29.81-.32s.64.06.88.25c.23.28.35.6.35.95s-.07.62-.21.81c-.19.23-.45.36-.77.39s-.63-.04-.91-.18c-.23-.19-.39-.47-.46-.84s.04-.73.32-1.05Z"/></g><path class="cls-11" d="M34.1,4.85h-.6c-.4,0-.81.04-1.23.11s-.68.2-.77.39c0,.09.15.29.46.6s.62.59.95.84l.49.39-.18.6c-.12.4-.22.82-.32,1.27s-.07.74.07.88c.14.09.42.05.84-.14s.81-.4,1.16-.63l.53-.35.53.28c.35.19.73.36,1.12.53s.64.2.74.11.11-.35.04-.77-.14-.82-.21-1.2l-.11-.56.42-.39c.28-.26.55-.54.81-.84s.34-.55.25-.74c-.05-.09-.28-.16-.7-.21s-.83-.08-1.23-.11l-.6-.04-.18-.56c-.12-.38-.27-.76-.46-1.16s-.38-.6-.56-.6c-.14.05-.3.26-.49.63s-.36.75-.53,1.12l-.25.56Z"/><path class="cls-11" d="M61.45,59.91c-.23-.14-.43-.41-.6-.81s-.15-.76.04-1.09c.19-.28.48-.49.88-.63s.74-.16,1.02-.07c.28.14.53.4.74.77s.25.75.11,1.12c-.19.42-.5.69-.95.81s-.86.08-1.23-.11Z"/><path class="cls-11" d="M72.77,40.43c.14.23.19.54.14.91s-.21.66-.49.84-.61.25-.98.18-.66-.2-.84-.39c-.19-.23-.29-.54-.32-.91s.13-.7.46-.98c.28-.28.63-.38,1.05-.28s.75.3.98.63Z"/></g></svg>