<?xml version="1.0" encoding="UTF-8"?><svg id="Calque_2" xmlns="http://www.w3.org/2000/svg" viewBox="0 0 50.27 79.1"><defs><style>.cls-1{fill:#82aec0;}.cls-1,.cls-2,.cls-3,.cls-4,.cls-5,.cls-6,.cls-7,.cls-8,.cls-9{stroke-width:0px;}.cls-2{fill:#424242;}.cls-3{fill:#ffd600;}.cls-4{fill:#94d1e0;}.cls-5{fill:#2f7889;}.cls-6{fill:#ffff8d;}.cls-7{fill:#fff;}.cls-8{fill:#b26500;}.cls-9{fill:#ffa000;}</style></defs><g id="Calque_1-2"><path class="cls-2" d="M33.12,74.46c0-1.31-.79-2.43-2.36-3.34s-3.43-1.37-5.59-1.37-4.09.46-5.66,1.37-2.36,2.03-2.36,3.34.79,2.36,2.36,3.27,3.46,1.37,5.66,1.37,4.02-.46,5.59-1.37,2.36-2,2.36-3.27Z"/><path class="cls-3" d="M25.17,0c3.47,0,6.71.6,9.74,1.79s5.7,2.86,8.02,4.99,4.12,4.59,5.41,7.38,1.93,5.78,1.93,8.96c0,1.64-.22,3.32-.67,5.03s-1.04,3.36-1.79,4.96c-1.03,2.2-2.11,4.2-3.23,5.98s-1.85,2.98-2.18,3.59c-.61,1.12-1,2.19-1.16,3.2s-.26,1.97-.28,2.88-.15,1.79-.39,2.64c-.38,1.27-1.01,2.29-1.9,3.06s-2.38,1.32-4.46,1.65-5.12.49-9.11.49-6.97-.18-9.11-.53-3.67-.94-4.61-1.76-1.57-1.91-1.9-3.27c-.23-1.12-.41-2.51-.53-4.15s-.64-3.28-1.58-4.92c-.33-.61-.97-1.69-1.93-3.23s-1.96-3.42-2.99-5.62c-.75-1.59-1.35-3.25-1.79-4.96s-.67-3.39-.67-5.03c0-3.19.64-6.18,1.93-8.96s3.09-5.25,5.41-7.38S12.34,2.99,15.36,1.79s6.29-1.79,9.81-1.79Z"/><path class="cls-8" d="M39.59,54.14c0-.52-.64-1-1.93-1.44s-3.04-.8-5.24-1.05-4.62-.39-7.24-.39-5.11.13-7.31.39-3.95.61-5.24,1.05-1.93.93-1.93,1.44c0,.56.64,1.07,1.93,1.51s3.04.8,5.24,1.05,4.64.39,7.31.39,5.04-.13,7.24-.39,3.95-.61,5.24-1.05,1.93-.95,1.93-1.51Z"/><path class="cls-8" d="M39.59,54.14c0-.52-.64-1-1.93-1.44s-3.04-.8-5.24-1.05-4.62-.39-7.24-.39-5.11.13-7.31.39-3.95.61-5.24,1.05-1.93.93-1.93,1.44c0,.56.64,1.07,1.93,1.51s3.04.8,5.24,1.05,4.64.39,7.31.39,5.04-.13,7.24-.39,3.95-.61,5.24-1.05,1.93-.95,1.93-1.51Z"/><path class="cls-9" d="M35.65,54.14c0-.38-1.02-.69-3.06-.95s-4.51-.39-7.42-.39-5.45.13-7.49.39-3.06.57-3.06.95,1.02.7,3.06.98,4.54.42,7.49.42,5.38-.14,7.42-.42,3.06-.61,3.06-.98Z"/><path class="cls-8" d="M18.7,35.09l-1.27-.49c0,.09-.05.26-.14.49-.89,2.06-1.12,3.45-.7,4.15s1.24,1.55,2.46,2.53c1.22.89,1.83,1.62,1.83,2.18,0,2.02-.75,6.35-2.25,13.01l1.27.28c1.5-6.75,2.25-11.18,2.25-13.29,0-.98-.75-2.06-2.25-3.23-1.12-.84-1.85-1.55-2.18-2.11-.19-.38.07-1.38.77-3.02.09-.23.16-.4.21-.49Z"/><path class="cls-8" d="M32.34,34.17l-1.2.56c.89,1.92,1.17,3.26.84,4.01-.19.47-1.17,1.29-2.95,2.46-.28.19-.45.3-.49.35-1.31,1.03-1.22,6.23.28,15.61l1.34-.21c-1.45-8.86-1.71-13.64-.77-14.34,0-.05.12-.14.35-.28,2.02-1.31,3.16-2.32,3.45-3.02.52-1.12.23-2.84-.84-5.13Z"/><path class="cls-7" d="M31.22,29.81l-.42-2.39c-.28-1.92-.35-3.45-.21-4.57.14-1.03.49-1.55,1.05-1.55.7,0,1.1.54,1.2,1.62.05,1.17-.23,2.74-.84,4.71-.23.8-.49,1.52-.77,2.18ZM18.84,30.8c-.14-.47-.3-.94-.49-1.41-.66-2.2-.96-4.08-.91-5.62.09-1.5.54-2.32,1.34-2.46.28-.09.52.19.7.84.23.89.28,2.11.14,3.66-.14,1.83-.4,3.49-.77,4.99ZM25.03,31.36c-.28-.75-.52-1.55-.7-2.39-.56-2.25-.77-4.12-.63-5.62.09-1.41.47-2.11,1.12-2.11.7.05,1.15.61,1.34,1.69.23,1.22.14,2.79-.28,4.71-.23,1.41-.52,2.65-.84,3.73ZM17.51,34.52l1.2.56c.09-.23.21-.49.35-.77.19.33.38.63.56.91,1.22,1.83,2.37,2.39,3.45,1.69.7-.47,1.36-1.22,1.97-2.25l.14.28c.47.8.94,1.36,1.41,1.69.7.52,1.36.56,1.97.14.8-.52,1.57-1.48,2.32-2.88.09.23.19.49.28.77l1.27-.42c-.23-.7-.45-1.43-.63-2.18.47-1.12.96-2.46,1.48-4.01.66-2.16.94-3.91.84-5.27-.09-1.88-.91-2.81-2.46-2.81-1.31,0-2.11.91-2.39,2.74-.14,1.22-.05,2.86.28,4.92.19,1.45.47,2.91.84,4.36-.84,1.92-1.69,3.14-2.53,3.66-.14.09-.3.07-.49-.07-.33-.23-.68-.68-1.05-1.34-.19-.33-.38-.68-.56-1.05.56-1.41,1.05-3.16,1.48-5.27s.49-3.84.21-5.2c-.33-1.83-1.2-2.74-2.6-2.74-1.45-.05-2.27,1.05-2.46,3.3-.14,1.64.09,3.66.7,6.05.33,1.45.75,2.74,1.27,3.87-.61,1.27-1.27,2.16-1.97,2.67-.33.19-.89-.28-1.69-1.41-.33-.52-.66-1.1-.98-1.76.66-1.97,1.08-4.24,1.27-6.82.14-1.69.07-3.05-.21-4.08-.42-1.41-1.17-2.02-2.25-1.83-1.45.28-2.23,1.52-2.32,3.73-.09,1.69.21,3.7.91,6.05.38,1.12.77,2.13,1.2,3.02-.23.61-.49,1.2-.77,1.76Z"/><path class="cls-1" d="M39.59,54.77l.04.91c.02.61,0,1.3-.07,2.07s-.25,1.42-.53,1.93c-.19.38-.41.71-.67,1.02s-.48.55-.67.74c-.33.28-.42.61-.28.98.09.23.13.49.11.77s-.13.54-.32.77l-.28.14-.42,1.97.35.7c.28.52.21.96-.21,1.34l-.7.77-.42,1.97.14.28c.14.47.02.89-.35,1.27l-.14.14v.14l-.77.84c-.52.56-1.49,1.12-2.92,1.69s-3.53.84-6.29.84-4.93-.28-6.36-.84-2.4-1.12-2.92-1.69l-.77-.84-.28-1.48-.28-.28c-.56-.56-.7-1.22-.42-1.97l.14-.35-.35-1.83-.35-.35c-.52-.56-.66-1.2-.42-1.9l.14-.49-.35-1.83-.49-.56c-.33-.38-.73-1.03-1.2-1.97-.28-.52-.45-1.16-.49-1.93s-.07-1.46-.07-2.07v-.91l1.41.46c.94.3,2.46.61,4.57.91s4.95.46,8.51.46,6.33-.15,8.44-.46,3.63-.61,4.57-.91l1.41-.46Z"/><path class="cls-5" d="M12.94,62.23c3.89.14,7.39.18,10.51.11s5.59-.18,7.42-.32l2.74-.21c.8-.09,1.16-.09,1.09,0s-.38.23-.91.42-1.11.35-1.72.49c-3.28.52-6.08.87-8.4,1.05s-4.31.28-5.98.28h-4.39l-.35-1.83Z"/><path class="cls-5" d="M14.27,68.62l-.42-1.83c1.36,0,3.23-.07,5.62-.21s5.07-.4,8.05-.77,6.11-.94,9.39-1.69l-.42,1.97c-3.09.7-6.07,1.23-8.93,1.58s-5.44.6-7.73.74-4.15.21-5.55.21Z"/><path class="cls-5" d="M35.86,68.91l-.35,1.97c-1.5.28-3.13.57-4.89.88s-3.41.55-4.96.74c-.23.05-.35.19-.35.42s.14.38.42.42c1.69.19,3.25.22,4.68.11s2.57-.27,3.41-.46l1.27-.28-.21.63c-.14.42-.5.91-1.09,1.48s-1.57,1.05-2.95,1.48-3.29.63-5.73.63-4.41-.21-5.77-.63-2.34-.91-2.95-1.48-.97-1.05-1.09-1.48l-.18-.63-.28-1.34c2.16-.05,5.12-.23,8.89-.56s7.82-.96,12.13-1.9Z"/><path class="cls-1" d="M11.25,53.58c-.8-.33-1.36-.09-1.69.7-.19.38-.23.73-.14,1.05.14.28.42.49.84.63,3,1.31,7.95,1.97,14.84,1.97s11.86-.66,14.91-1.97c.84-.33,1.08-.89.7-1.69-.33-.8-.89-1.03-1.69-.7-2.72,1.17-7.36,1.76-13.92,1.76s-11.18-.59-13.85-1.76Z"/><path class="cls-6" d="M15.82,4.22c-2.06.52-4.01,1.61-5.84,3.27s-3.19,3.43-4.08,5.31c-.84,1.73-1.28,3.59-1.3,5.55s.43,3.8,1.37,5.48c.14.28.3.54.49.77s.42.42.7.56c.52.23,1.05.26,1.62.07s1.03-.49,1.41-.91c.38-.38.68-.82.91-1.34s.49-1.03.77-1.55c.7-1.45,1.64-2.65,2.81-3.59s2.41-1.8,3.73-2.6,2.51-1.71,3.59-2.74c.56-.56,1.05-1.21,1.48-1.93s.59-1.49.49-2.29c-.09-.75-.45-1.48-1.05-2.18-.89-1.12-1.97-1.8-3.23-2.04s-2.55-.19-3.87.14Z"/><path class="cls-3" d="M13.57,58.01c.89.38,2.23.75,4.01,1.12s4.2.56,7.24.56,5.66-.21,7.56-.63,3.34-.87,4.32-1.34c.28-.14.39-.36.32-.67s-.27-.46-.6-.46c-1.31.14-3.02.29-5.13.46s-4.41.25-6.89.25-4.48-.05-6.26-.14-3.21-.19-4.29-.28c-.33,0-.53.15-.6.46s.04.53.32.67Z"/><path class="cls-4" d="M17.16,64.69c.66-.23,1.46-.43,2.43-.6s1.77-.06,2.43.32c.42.23.61.56.56.98-.05.28-.23.52-.56.7-.14.09-.29.15-.46.18s-.32.06-.46.11l-1.55.28c-.52.09-1.03.14-1.55.14-.61-.05-1.1-.16-1.48-.35-.33-.14-.52-.3-.56-.49,0-.19.05-.35.14-.49.09-.23.25-.41.46-.53s.41-.2.6-.25Z"/><path class="cls-4" d="M18.14,68.98c.66-.19,1.46-.36,2.43-.53s1.75-.08,2.36.25c.47.28.68.63.63,1.05-.05.28-.23.52-.56.7-.14.09-.29.15-.46.18s-.32.06-.46.11c-.52.09-1.03.18-1.55.25s-1.03.11-1.55.11c-.61,0-1.12-.09-1.55-.28-.28-.14-.45-.33-.49-.56,0-.14.02-.3.07-.49.14-.19.32-.34.53-.46s.41-.22.6-.32Z"/><path class="cls-6" d="M15.89,52.88c-1.12-.09-2.2-.55-3.23-1.37s-1.78-1.75-2.25-2.78c-.52-1.12-.26-1.92.77-2.39.61-.28,1.21-.29,1.79-.04s1.11.57,1.58.95c.28.23.56.48.84.74s.56.53.84.81l.74.74.74.74c.09.09.2.21.32.35s.2.28.25.42c.23.61.02,1.12-.63,1.55-.42.28-1.01.38-1.76.28Z"/></g></svg>