<?xml version="1.0" encoding="UTF-8"?><svg id="Calque_2" xmlns="http://www.w3.org/2000/svg" xmlns:xlink="http://www.w3.org/1999/xlink" viewBox="0 0 73.91 79.15"><defs><style>.cls-1{fill:#616161;}.cls-1,.cls-2,.cls-3,.cls-4,.cls-5{stroke-width:0px;}.cls-2{fill:url(#Dégradé_sans_nom_4-2);}.cls-3{fill:#424242;}.cls-4{fill:url(#Dégradé_sans_nom_4);}.cls-5{fill:#757575;}.cls-6{isolation:isolate;opacity:.5;}</style><linearGradient id="Dégradé_sans_nom_4" x1="-93.34" y1="2353.28" x2="-92.34" y2="2353.28" gradientTransform="translate(1185.52 4453.93) rotate(-12.53) scale(1.93 -1.93)" gradientUnits="userSpaceOnUse"><stop offset="0" stop-color="#212121"/><stop offset=".2" stop-color="#212121"/><stop offset="1" stop-color="#212121" stop-opacity="0"/></linearGradient><linearGradient id="Dégradé_sans_nom_4-2" y1="2353.28" y2="2353.28" gradientTransform="translate(-1111.62 4453.93) rotate(-167.47) scale(1.93)" xlink:href="#Dégradé_sans_nom_4"/></defs><g id="Calque_1-2"><path class="cls-1" d="M11.54,63.28c-.38-1.92-1.16-3.48-2.36-4.68s-2.45-1.65-3.76-1.37c-1.36.23-2.37,1.12-3.02,2.67s-.8,3.3-.42,5.27c.38,1.92,1.16,3.48,2.36,4.68s2.45,1.65,3.76,1.37c1.36-.23,2.37-1.12,3.02-2.67s.8-3.3.42-5.27Z"/><path class="cls-1" d="M6.89,37.05l-3.94-.14c-.38,7.78.07,17.06,1.34,27.84l3.94-.42c-1.27-10.59-1.71-19.69-1.34-27.28Z"/><path class="cls-1" d="M68.49,57.23c-1.31-.28-2.57.18-3.76,1.37s-1.98,2.75-2.36,4.68c-.38,1.97-.23,3.73.42,5.27s1.66,2.44,3.02,2.67c1.31.28,2.57-.18,3.76-1.37s1.98-2.75,2.36-4.68c.38-1.97.22-3.73-.46-5.27s-1.68-2.44-2.99-2.67Z"/><path class="cls-1" d="M70.95,36.91l-3.94.14c.38,7.59-.07,16.69-1.34,27.28l3.94.42c1.27-10.78,1.71-20.06,1.34-27.84Z"/><path class="cls-1" d="M69.89,41.27c1.12.09,2.09-.27,2.88-1.09s1.17-1.79,1.12-2.92c-.09-1.88-.36-4.12-.81-6.75s-1.17-5.34-2.18-8.16-2.45-5.46-4.32-7.95c-3.47-4.64-7.76-8.2-12.87-10.69S43.04,0,36.99,0s-11.7,1.24-16.8,3.73-9.4,6.05-12.87,10.69c-1.88,2.48-3.32,5.13-4.32,7.95s-1.73,5.53-2.18,8.16S.1,35.39,0,37.27c-.05,1.12.33,2.1,1.12,2.92s1.76,1.18,2.88,1.09h.42c1.64-.05,3.05-.63,4.22-1.76s1.85-2.48,2.04-4.08c.23-1.97.71-4.04,1.44-6.22s1.91-4.35,3.55-6.5c2.11-2.81,4.42-4.95,6.93-6.4s5.02-2.45,7.52-2.99,4.79-.81,6.86-.81c9.05,0,16.12,3.4,21.23,10.2,1.59,2.11,2.75,4.24,3.48,6.4s1.23,4.2,1.51,6.12c.19,1.69.91,3.11,2.18,4.25s2.77,1.75,4.5,1.79Z"/><path class="cls-3" d="M20.32,78.68l-6.33-33.33c-1.73.38-3.38,1.34-4.92,2.88s-2.73,3.63-3.55,6.26-.97,5.77-.46,9.42c.47,3.66,1.51,6.62,3.13,8.89s3.5,3.89,5.66,4.85,4.31,1.3,6.47,1.02Z"/><path class="cls-5" d="M20.68,43.1c.89-.14,1.86.5,2.92,1.93s2.05,3.42,2.99,5.98,1.71,5.43,2.32,8.61c.66,3.23,1.02,6.21,1.09,8.93s-.12,4.95-.56,6.68-1.11,2.67-2,2.81l-5.55.98c-1.12.23-2.21.13-3.27-.32s-1.91-1.16-2.57-2.14c-.84-1.27-1.76-3.01-2.74-5.24s-1.78-5-2.39-8.33c-.66-3.28-.95-6.14-.88-8.58s.27-4.41.6-5.91c.23-1.12.75-2.1,1.55-2.92s1.78-1.32,2.95-1.51l5.55-.98Z"/><g class="cls-6"><path class="cls-3" d="M28.9,59.62c-.56-2.95-1.27-5.61-2.11-7.98s-1.71-4.22-2.6-5.55-1.71-1.93-2.46-1.79-1.29,1-1.62,2.57-.45,3.61-.35,6.12.45,5.26,1.05,8.26c.56,2.95,1.27,5.62,2.11,8.02s1.71,4.24,2.6,5.55,1.71,1.9,2.46,1.76,1.29-1,1.62-2.57.45-3.61.35-6.12-.45-5.26-1.05-8.26Z"/></g><path class="cls-4" d="M27.64,59.91c-.61-3-1.27-5.54-1.97-7.63s-1.27-3.08-1.69-2.99-.59,1.23-.49,3.41.45,4.79,1.05,7.84c.56,3,1.21,5.54,1.93,7.63s1.3,3.08,1.72,2.99.57-1.24.46-3.45-.46-4.8-1.02-7.8Z"/><path class="cls-3" d="M53.58,78.68l6.33-33.33c1.73.38,3.38,1.34,4.92,2.88s2.73,3.63,3.55,6.26.97,5.77.46,9.42c-.47,3.66-1.51,6.62-3.13,8.89s-3.5,3.89-5.66,4.85-4.31,1.3-6.47,1.02Z"/><path class="cls-5" d="M53.23,43.1c-.89-.14-1.86.5-2.92,1.93s-2.05,3.42-2.99,5.98-1.71,5.43-2.32,8.61c-.66,3.23-1.02,6.21-1.09,8.93s.12,4.95.56,6.68,1.11,2.67,2,2.81l5.55.98c1.12.23,2.21.13,3.27-.32s1.91-1.16,2.57-2.14c.84-1.27,1.76-3.01,2.74-5.24s1.78-5,2.39-8.33c.66-3.28.95-6.14.88-8.58s-.27-4.41-.6-5.91c-.23-1.12-.75-2.1-1.55-2.92s-1.78-1.32-2.95-1.51l-5.55-.98Z"/><g class="cls-6"><path class="cls-3" d="M52.18,44.3c-.75-.14-1.57.46-2.46,1.79s-1.76,3.19-2.6,5.55-1.55,5.03-2.11,7.98c-.61,3-.96,5.75-1.05,8.26s.02,4.55.35,6.12.87,2.43,1.62,2.57,1.57-.46,2.46-1.79,1.76-3.19,2.6-5.55,1.55-5.03,2.11-7.98c.61-3,.96-5.75,1.05-8.26s-.02-4.55-.35-6.12-.87-2.43-1.62-2.57Z"/></g><path class="cls-2" d="M46.27,59.91c.61-3,1.27-5.54,1.97-7.63s1.27-3.08,1.69-2.99.59,1.23.49,3.41-.45,4.79-1.05,7.84c-.56,3-1.21,5.54-1.93,7.63s-1.3,3.08-1.72,2.99-.57-1.24-.46-3.45.46-4.8,1.02-7.8Z"/><path class="cls-3" d="M73.27,38.32c.09-.05.19-.13.28-.25s.21-.2.35-.25c-.09.98-.53,1.83-1.3,2.53s-1.68,1.01-2.71.91h-.28c-2.2,0-3.77-.57-4.71-1.72s-1.5-2.52-1.69-4.11c-.23-1.97-.71-4.04-1.44-6.22s-1.91-4.35-3.55-6.5c-2.11-2.81-4.42-4.95-6.93-6.4s-5-2.45-7.49-2.99-4.76-.81-6.82-.81-4.41.27-6.89.81-4.98,1.54-7.49,2.99-4.82,3.59-6.93,6.4c-1.64,2.16-2.82,4.35-3.55,6.57s-1.21,4.32-1.44,6.29c-.19,1.55-.74,2.88-1.65,4.01s-2.38,1.69-4.39,1.69h-.63c-1.03.05-1.93-.27-2.71-.95S.1,38.81,0,37.83c.14.05.26.13.35.25s.19.2.28.25c.94.66,1.9.71,2.88.18s1.64-1.28,1.97-2.21c.42-2.44,1.07-4.97,1.93-7.59s2.1-5.09,3.69-7.38c1.97-3.05,4.34-5.58,7.1-7.59s5.75-3.53,8.96-4.54,6.48-1.51,9.81-1.51,6.53.5,9.74,1.51,6.2,2.52,8.96,4.54,5.13,4.55,7.1,7.59c1.59,2.3,2.82,4.76,3.69,7.38s1.51,5.16,1.93,7.59c.33.94.98,1.68,1.97,2.21s1.95.48,2.88-.18Z"/><path class="cls-5" d="M4.43,24.82c.38.28.76.25,1.16-.11s.79-.84,1.16-1.48.71-1.27,1.02-1.9.55-1.07.74-1.3c1.08-1.73,2.65-3.61,4.71-5.62s4.52-3.8,7.38-5.34c.56-.28,1.3-.6,2.21-.95s1.82-.75,2.71-1.2,1.57-.91,2.04-1.41.54-1.04.21-1.65c-.47-.8-1.2-1.24-2.18-1.34s-1.99.01-3.02.32-1.85.62-2.46.95c-3.33,1.69-6.11,3.59-8.33,5.7s-3.96,4.16-5.2,6.15-2.03,3.64-2.36,4.96c-.47,1.64-.63,2.7-.49,3.16s.38.82.7,1.05Z"/></g></svg>